<svg width="15" height="12" viewBox="0 0 15 12" fill="none" xmlns="http://www.w3.org/2000/svg">
<path d="M0 10.686C0 11.3589 0.545898 11.9048 1.21875 11.9048H13.4062C14.0791 11.9048 14.625 11.3589 14.625 10.686V6.21729H0V10.686ZM4.875 8.95947C4.875 8.7919 5.01212 8.65479 5.17969 8.65479H8.63281C8.80038 8.65479 8.9375 8.7919 8.9375 8.95947V9.9751C8.9375 10.1427 8.80038 10.2798 8.63281 10.2798H5.17969C5.01212 10.2798 4.875 10.1427 4.875 9.9751V8.95947ZM1.625 8.95947C1.625 8.7919 1.76212 8.65479 1.92969 8.65479H3.75781C3.92538 8.65479 4.0625 8.7919 4.0625 8.95947V9.9751C4.0625 10.1427 3.92538 10.2798 3.75781 10.2798H1.92969C1.76212 10.2798 1.625 10.1427 1.625 9.9751V8.95947ZM14.625 1.74854C14.625 1.07568 14.0791 0.529785 13.4062 0.529785H1.21875C0.545898 0.529785 0 1.07568 0 1.74854V2.96729H14.625V1.74854Z" fill="white"/>
</svg>
