<svg width="24" height="24" viewBox="0 0 24 24" fill="none" xmlns="http://www.w3.org/2000/svg">
<path d="M0 1.98933V21.3538C0 22.4812 0.66386 23.1451 1.98933 23.3454H12.3366C12.4243 23.3454 12.4671 23.3004 12.4671 23.2126V14.5239C12.4671 14.4474 12.4243 14.4024 12.3366 14.3911H9.41782V10.8108H12.3366C12.4243 10.8108 12.4671 10.7658 12.4671 10.678V8.1576C12.4671 7.56126 12.5571 6.96266 12.7326 6.36631C13.4955 4.50975 14.8885 3.58034 16.9116 3.58034H17.1096C18.0728 3.58034 18.9572 3.62535 19.7628 3.71312V6.8974H18.3698C16.9116 6.8974 16.1824 7.31821 16.1824 8.1576V10.678C16.1824 10.7658 16.2252 10.8108 16.3152 10.8108H19.63L19.1664 14.3911H16.3152C16.2365 14.3911 16.1937 14.4361 16.1824 14.5239V23.2126C16.1824 23.3004 16.2252 23.3454 16.3152 23.3454H21.3561C22.4835 23.3454 23.1451 22.6815 23.3454 21.3538V1.98933C23.3454 0.861893 22.6815 0.198033 21.3561 0H1.98933C0.861893 0 0.198033 0.66386 0 1.98933Z" fill="#FFEA3D"/>
</svg>
