<svg width="22" height="29" viewBox="0 0 22 29" fill="none" xmlns="http://www.w3.org/2000/svg">
<path fill-rule="evenodd" clip-rule="evenodd" d="M2.14219 7.89886e-06H7.34619C7.6206 0.000989772 7.88604 0.0977365 8.09673 0.27355C8.30741 0.449363 8.45011 0.693212 8.50019 0.963008L9.5522 6.81001C9.59716 7.05965 9.55949 7.31715 9.4449 7.54345C9.3303 7.76975 9.14503 7.95251 8.91719 8.06401L5.49419 9.75601C6.38327 13.8571 8.67226 17.5207 11.9682 20.118L14.9892 17.783C15.4042 17.463 15.9762 17.455 16.3952 17.763L21.1902 21.27C21.6472 21.611 21.8002 22.227 21.5522 22.736L19.2722 27.413C19.1561 27.6512 18.9626 27.843 18.7234 27.9569C18.4841 28.0708 18.2133 28.1001 17.9552 28.04C5.78919 25.23 -1.81181 13.093 1.00119 0.908008C1.12419 0.376008 1.59819 -0.0019921 2.14219 7.89886e-06Z" fill="#77AC27"/>
</svg>
